PathFileType	4	(X/Y/Z)	/Users/itak/Documents/Research/Walk-IL/dataset/trc/00088_00006.trc
DataRate	CameraRate	NumFrames	NumMarkers	Units	OrigDataRate	OrigDataStartFrame	OrigNumFrames
100.000000	100.000000	4	53	mm	100.000000	63	508
Frame#	Time	RPSI			LPSI			L3			STRN			T10			C7			CLAV			RBAK			LBAK			LSHO			LUPA			LAEL			LAOL			LWTS			LWPS			LFRA			LIFD			LHPS			LHTS			RSHO			RUPA			RAEL			RAOL			RWTS			RWPS			RFRA			RIFD			RHTS			RHPS			RBHD			LFHD			RFHD			LBHD			LHIP			RHIP			RASI			LASI			LKNE			LTHI			LANK			LTIP			LTOE			LMT1			LMT5			LHEE			RKNE			RTHI			RANK			RTIP			RTOE			RMT1			RMT5			RHEE			
		X1	Y1	Z1	X2	Y2	Z2	X3	Y3	Z3	X4	Y4	Z4	X5	Y5	Z5	X6	Y6	Z6	X7	Y7	Z7	X8	Y8	Z8	X9	Y9	Z9	X10	Y10	Z10	X11	Y11	Z11	X12	Y12	Z12	X13	Y13	Z13	X14	Y14	Z14	X15	Y15	Z15	X16	Y16	Z16	X17	Y17	Z17	X18	Y18	Z18	X19	Y19	Z19	X20	Y20	Z20	X21	Y21	Z21	X22	Y22	Z22	X23	Y23	Z23	X24	Y24	Z24	X25	Y25	Z25	X26	Y26	Z26	X27	Y27	Z27	X28	Y28	Z28	X29	Y29	Z29	X30	Y30	Z30	X31	Y31	Z31	X32	Y32	Z32	X33	Y33	Z33	X34	Y34	Z34	X35	Y35	Z35	X36	Y36	Z36	X37	Y37	Z37	X38	Y38	Z38	X39	Y39	Z39	X40	Y40	Z40	X41	Y41	Z41	X42	Y42	Z42	X43	Y43	Z43	X44	Y44	Z44	X45	Y45	Z45	X46	Y46	Z46	X47	Y47	Z47	X48	Y48	Z48	X49	Y49	Z49	X50	Y50	Z50	X51	Y51	Z51	X52	Y52	Z52	X53	Y53	Z53	

64	0.63	-1371.656860351562	1043.301879882812	14.60196685791016	-1389.17333984375	1036.976684570312	-160.4813842773438	-1375.227172851562	1091.50439453125	-81.29020690917969	-1124.999877929688	1299.281372070312	-85.90521240234375	-1395.255981445312	1219.063354492188	-85.58843231201172	-1348.718383789062	1488.130615234375	-90.74027252197266	-1163.467041015625	1411.70166015625	-88.37560272216797	-1404.727783203125	1347.956665039062	-12.58409214019775	-1369.2744140625	1448.380249023438	-191.5944366455078	-1268.435791015625	1460.951293945312	-263.8244934082031	-1282.616333007812	1335.951416015625	-346.1572875976562	-1253.673706054688	1123.831909179688	-373.0135498046875	-1312.032348632812	1103.026733398438	-286.3834228515625	-1137.208740234375	895.4988403320312	-313.6621704101562	-1195.776977539062	877.0401000976562	-370.1332702636719	-1224.0205078125	1016.763061523438	-381.9096374511719	-1097.982543945312	714.3590698242188	-294.4759826660156	-1152.9814453125	800.5924682617188	-366.1782531738281	-1105.183349609375	817.548828125	-317.744140625	-1286.438842773438	1458.77734375	85.79256439208984	-1295.34423828125	1390.578247070312	153.3854064941406	-1304.285766601562	1122.483642578125	181.3312530517578	-1285.97509765625	1102.267211914062	84.79641723632812	-1143.708618164062	883.411376953125	145.880859375	-1211.148315429688	862.5338745117188	194.5636291503906	-1284.811889648438	1044.62646484375	187.7718505859375	-1114.149169921875	698.249267578125	132.9521789550781	-1107.009521484375	787.6884155273438	147.4862670898438	-1164.359130859375	778.3471069335938	198.4870758056641	-1334.027221679688	1657.072509765625	-30.70205879211426	-1146.404418945312	1717.492797851562	-133.2764129638672	-1172.679443359375	1710.6025390625	-10.33843898773193	-1315.094848632812	1670.130493164062	-166.6182098388672	-1290.434204101562	969.4793090820312	-253.4932250976562	-1302.403442382812	968.888671875	89.57724761962891	-1179.240844726562	986.0927124023438	60.93270874023438	-1175.323486328125	981.792236328125	-207.4362945556641	-1251.728759765625	502.6507568359375	-218.4354400634766	-1273.472534179688	645.5904541015625	-250.2072448730469	-1335.65087890625	51.89215469360352	-237.2657470703125	-1305.201904296875	271.813720703125	-242.8029479980469	-1129.2587890625	46.06403732299805	-239.1650390625	-1176.309448242188	46.68425369262695	-184.7125701904297	-1235.08740234375	42.28429412841797	-279.9822387695312	-1384.747802734375	49.3132438659668	-159.1210784912109	-1246.29931640625	520.7119140625	73.04244232177734	-1226.418701171875	792.7967529296875	96.93341064453125	-1318.478515625	46.59040832519531	76.41709136962891	-1270.119262695312	402.5124816894531	81.6077880859375	-1100.579956054688	44.04483795166016	47.87911987304688	-1160.867431640625	48.45127105712891	5.169755458831787	-1195.882080078125	48.80719757080078	98.40372467041016	-1363.2666015625	46.25736618041992	17.27784729003906	
65	0.64	-1371.64892578125	1043.260986328125	14.58327293395996	-1389.130981445312	1036.960205078125	-160.4970550537109	-1375.209838867188	1091.45751953125	-81.30837249755859	-1125.0537109375	1299.2431640625	-85.86903381347656	-1395.2431640625	1219.0185546875	-85.60311889648438	-1348.759155273438	1488.093139648438	-90.75868225097656	-1163.503540039062	1411.668212890625	-88.34708404541016	-1404.74658203125	1347.91064453125	-12.60323905944824	-1369.29150390625	1448.336303710938	-191.6136627197266	-1268.43115234375	1460.900024414062	-263.8316955566406	-1282.421142578125	1335.826293945312	-346.0650939941406	-1253.324951171875	1123.711547851562	-372.7731323242188	-1311.766357421875	1102.91064453125	-286.1804809570312	-1136.87060546875	895.3964233398438	-313.3154602050781	-1195.366943359375	876.9185180664062	-369.84033203125	-1223.618408203125	1016.674377441406	-381.6006164550781	-1097.752319335938	714.2266845703125	-294.1786804199219	-1152.656372070312	800.4586181640625	-365.87060546875	-1105.034057617188	817.2883911132812	-317.3001403808594	-1286.47314453125	1458.7197265625	85.80525970458984	-1295.317260742188	1390.48876953125	153.3893585205078	-1304.039794921875	1122.340209960938	181.1786499023438	-1285.871215820312	1102.203735351562	84.58097076416016	-1142.977783203125	883.6178588867188	145.3006439208984	-1210.677001953125	862.4321899414062	194.064453125	-1284.55419921875	1044.471801757812	187.5065612792969	-1113.624267578125	698.3367309570312	132.1857452392578	-1106.590209960938	787.750732421875	146.8274078369141	-1163.856079101562	778.3006591796875	197.8485565185547	-1334.085083007812	1656.8642578125	-30.57463836669922	-1146.759521484375	1717.587158203125	-133.2967376708984	-1172.809448242188	1710.617431640625	-10.2825984954834	-1315.290893554688	1670.074096679688	-166.4327545166016	-1290.395874023438	969.4671020507812	-253.5087432861328	-1302.383666992188	968.8807983398438	89.60255432128906	-1179.23681640625	986.059326171875	60.95695114135742	-1175.284790039062	981.760498046875	-207.43017578125	-1251.756225585938	502.6471557617188	-218.4380187988281	-1273.486572265625	645.5789794921875	-250.2218780517578	-1335.653442382812	51.88988876342773	-237.2855224609375	-1305.179077148438	271.8003845214844	-242.75	-1129.285400390625	46.09457397460938	-239.153564453125	-1176.31982421875	46.7126350402832	-184.7268371582031	-1235.092895507812	42.29159164428711	-279.9841003417969	-1384.754150390625	49.3186149597168	-159.1241302490234	-1246.363525390625	520.71435546875	73.10205078125	-1226.416870117188	792.7615356445312	97.01284790039062	-1318.497192382812	46.55936813354492	76.44073486328125	-1270.183959960938	402.4630432128906	81.74542236328125	-1100.621215820312	44.08222198486328	47.86874771118164	-1160.912231445312	48.47161102294922	5.171025276184082	-1195.898071289062	48.81652450561523	98.40865325927734	-1363.2919921875	46.23657608032227	17.31596565246582	
66	0.65	-1371.62939453125	1043.220703125	14.56584739685059	-1389.07958984375	1036.942260742188	-160.5117797851562	-1375.181884765625	1091.414428710938	-81.32294464111328	-1125.087036132812	1299.2080078125	-85.83695983886719	-1395.221557617188	1218.975219726562	-85.61829376220703	-1348.787109375	1488.057739257812	-90.77154541015625	-1163.514404296875	1411.637817382812	-88.32020568847656	-1404.755615234375	1347.868408203125	-12.62617969512939	-1369.289306640625	1448.295166015625	-191.6333465576172	-1268.416625976562	1460.847290039062	-263.8407287597656	-1282.218872070312	1335.698120117188	-345.9761352539062	-1252.963012695312	1123.581665039062	-372.5257568359375	-1311.536499023438	1102.799560546875	-285.9845275878906	-1136.588500976562	895.253173828125	-312.9380493164062	-1195.033569335938	876.785400390625	-369.5583801269531	-1223.224975585938	1016.5751953125	-381.280517578125	-1097.677734375	714.0331420898438	-293.8502197265625	-1152.441772460938	800.3052978515625	-365.579345703125	-1104.90625	817.0003662109375	-316.8673706054688	-1286.4951171875	1458.666870117188	85.81642150878906	-1295.291625976562	1390.401611328125	153.387451171875	-1303.80029296875	1122.20263671875	181.0273284912109	-1285.79345703125	1102.147338867188	84.35016632080078	-1142.2568359375	883.7996826171875	144.7218170166016	-1210.271118164062	862.3245849609375	193.5764465332031	-1284.334106445312	1044.323364257812	187.2316741943359	-1113.247924804688	698.3804321289062	131.4282684326172	-1106.253173828125	787.7428588867188	146.1543579101562	-1163.4697265625	778.2329711914062	197.2120513916016	-1334.121826171875	1656.654174804688	-30.44876480102539	-1147.061645507812	1717.680541992188	-133.2995452880859	-1172.919799804688	1710.630615234375	-10.21946430206299	-1315.456420898438	1670.01953125	-166.2499694824219	-1290.355102539062	969.458740234375	-253.5273895263672	-1302.352294921875	968.8751220703125	89.62440490722656	-1179.221313476562	986.0316162109375	60.97482299804688	-1175.240600585938	981.7288818359375	-207.427734375	-1251.769409179688	502.6551818847656	-218.4452972412109	-1273.504028320312	645.5676879882812	-250.2464904785156	-1335.654418945312	51.88864898681641	-237.3056488037109	-1305.109008789062	271.7745666503906	-242.6747283935547	-1129.317993164062	46.13491439819336	-239.1363372802734	-1176.333740234375	46.7458381652832	-184.7411041259766	-1235.10009765625	42.30385589599609	-279.985107421875	-1384.764770507812	49.32860946655273	-159.1312408447266	-1246.413452148438	520.7224731445312	73.18146514892578	-1226.376953125	792.7328491210938	97.11187744140625	-1318.5185546875	46.52641677856445	76.47061157226562	-1270.180053710938	402.4308471679688	81.89704132080078	-1100.666870117188	44.12526321411133	47.85775756835938	-1160.96484375	48.49241638183594	5.167556762695312	-1195.912841796875	48.83346176147461	98.41139221191406	-1363.322509765625	46.21122360229492	17.35908317565918	
67	0.66	-1371.596069335938	1043.182861328125	14.55179882049561	-1389.01904296875	1036.923095703125	-160.5259094238281	-1375.142822265625	1091.37646484375	-81.33319854736328	-1125.10107421875	1299.176391601562	-85.80867767333984	-1395.190307617188	1218.9345703125	-85.63382720947266	-1348.800048828125	1488.027099609375	-90.77827453613281	-1163.497680664062	1411.611572265625	-88.29496765136719	-1404.755004882812	1347.8310546875	-12.65239715576172	-1369.267578125	1448.258544921875	-191.6522674560547	-1268.390869140625	1460.79443359375	-263.8506774902344	-1282.014892578125	1335.569213867188	-345.8919372558594	-1252.589721679688	1123.443725585938	-372.2718505859375	-1311.342041015625	1102.6953125	-285.7962951660156	-1136.382080078125	895.0677490234375	-312.52783203125	-1194.776733398438	876.6432495117188	-369.2875366210938	-1222.845581054688	1016.463623046875	-380.952880859375	-1097.748901367188	713.7804565429688	-293.4859008789062	-1152.33251953125	800.137939453125	-365.3045349121094	-1104.80029296875	816.6928100585938	-316.4423828125	-1286.504150390625	1458.6171875	85.82633972167969	-1295.266235351562	1390.315795898438	153.3796691894531	-1303.57568359375	1122.070068359375	180.8744659423828	-1285.743408203125	1102.0986328125	84.10550689697266	-1141.584350585938	883.9451293945312	144.1561889648438	-1209.9384765625	862.2103881835938	193.0954284667969	-1284.150634765625	1044.18017578125	186.9490051269531	-1113.010498046875	698.3814697265625	130.6885223388672	-1105.989990234375	787.672119140625	145.4669342041016	-1163.196411132812	778.144775390625	196.5840148925781	-1334.137573242188	1656.445434570312	-30.32335472106934	-1147.304565429688	1717.771606445312	-133.2835693359375	-1173.01171875	1710.644165039062	-10.15056228637695	-1315.594848632812	1669.965454101562	-166.0718383789062	-1290.30810546875	969.4559326171875	-253.5486297607422	-1302.310180664062	968.8721923828125	89.64015197753906	-1179.19580078125	986.0111694335938	60.98534393310547	-1175.192016601562	981.6995849609375	-207.4288330078125	-1251.755737304688	502.6798400878906	-218.4588928222656	-1273.519775390625	645.5588989257812	-250.281005859375	-1335.653686523438	51.89018249511719	-237.3232269287109	-1304.982421875	271.7342834472656	-242.5764770507812	-1129.3564453125	46.18463516235352	-239.1121673583984	-1176.351318359375	46.78140640258789	-184.7535247802734	-1235.1083984375	42.32162857055664	-279.9837036132812	-1384.778930664062	49.34159469604492	-159.1405334472656	-1246.446166992188	520.74072265625	73.28711700439453	-1226.298950195312	792.7127075195312	97.23845672607422	-1318.541259765625	46.49264144897461	76.50590515136719	-1270.090942382812	402.4135131835938	82.05223846435547	-1100.714599609375	44.17328643798828	47.84748077392578	-1161.022216796875	48.51385498046875	5.161292552947998	-1195.926391601562	48.85951232910156	98.41100311279297	-1363.35693359375	46.18218231201172	17.40589904785156	
